<svg width="160" height="19" viewBox="0 0 160 19" fill="none" xmlns="http://www.w3.org/2000/svg">
<path d="M6.80594 18.192C6.20594 18.192 5.59394 18.12 4.96994 17.976C4.35394 17.832 3.75394 17.62 3.16994 17.34C2.59394 17.06 2.06594 16.716 1.58594 16.308C1.10594 15.892 0.701938 15.416 0.373938 14.88C0.421938 14.8 0.549938 14.664 0.757938 14.472C0.965938 14.272 1.20594 14.056 1.47794 13.824C1.74994 13.584 2.01794 13.364 2.28194 13.164C2.55394 12.964 2.77794 12.82 2.95394 12.732C3.20994 13.028 3.48194 13.324 3.76994 13.62C4.06594 13.916 4.37794 14.184 4.70594 14.424C5.04194 14.656 5.40194 14.844 5.78594 14.988C6.16994 15.132 6.57794 15.204 7.00994 15.204C7.50594 15.204 7.89794 15.112 8.18594 14.928C8.48194 14.744 8.69394 14.512 8.82194 14.232C8.94994 13.944 9.01394 13.652 9.01394 13.356C9.01394 13.116 8.95394 12.888 8.83394 12.672C8.71394 12.456 8.53394 12.252 8.29394 12.06C8.05394 11.86 7.75394 11.668 7.39394 11.484C7.04194 11.292 6.62594 11.112 6.14594 10.944C5.18594 10.576 4.31794 10.188 3.54194 9.78C2.76594 9.364 2.14594 8.864 1.68194 8.28C1.22594 7.696 0.997938 6.964 0.997938 6.084C0.997938 5.148 1.25794 4.364 1.77794 3.732C2.29794 3.1 2.98594 2.624 3.84194 2.304C4.69794 1.976 5.61794 1.812 6.60194 1.812C7.34594 1.812 8.06594 1.896 8.76194 2.064C9.46594 2.224 10.1219 2.468 10.7299 2.796C11.3379 3.124 11.8619 3.536 12.3019 4.032C12.1819 4.208 11.9939 4.444 11.7379 4.74C11.4819 5.036 11.2099 5.332 10.9219 5.628C10.6339 5.924 10.3899 6.16 10.1899 6.336C9.86994 6.024 9.51394 5.744 9.12194 5.496C8.72994 5.24 8.31794 5.04 7.88594 4.896C7.45394 4.744 7.01794 4.668 6.57794 4.668C6.06594 4.668 5.63394 4.78 5.28194 5.004C4.92994 5.22 4.75394 5.548 4.75394 5.988C4.75394 6.188 4.79794 6.368 4.88594 6.528C4.98194 6.688 5.11394 6.832 5.28194 6.96C5.44994 7.088 5.64994 7.208 5.88194 7.32C6.11394 7.424 6.37394 7.524 6.66194 7.62C7.47794 7.892 8.25394 8.176 8.98994 8.472C9.73394 8.768 10.3899 9.112 10.9579 9.504C11.5339 9.888 11.9859 10.36 12.3139 10.92C12.6419 11.48 12.8059 12.164 12.8059 12.972C12.8059 13.732 12.6579 14.432 12.3619 15.072C12.0659 15.704 11.6499 16.256 11.1139 16.728C10.5859 17.192 9.95394 17.552 9.21794 17.808C8.48994 18.064 7.68594 18.192 6.80594 18.192ZM20.0341 18.204C19.0501 18.204 18.1501 18.072 17.3341 17.808C16.5181 17.536 15.8661 17.1 15.3781 16.5C14.8981 15.892 14.6581 15.088 14.6581 14.088C14.6581 13.088 14.9381 12.284 15.4981 11.676C16.0661 11.06 16.8101 10.616 17.7301 10.344C18.6581 10.064 19.6541 9.924 20.7181 9.924C21.1341 9.924 21.5341 9.956 21.9181 10.02C22.3021 10.084 22.6381 10.16 22.9261 10.248C23.2221 10.336 23.4341 10.42 23.5621 10.5C23.5541 10.292 23.5101 10.072 23.4301 9.84C23.3581 9.608 23.2541 9.412 23.1181 9.252C22.8781 8.924 22.5501 8.652 22.1341 8.436C21.7261 8.212 21.1861 8.1 20.5141 8.1C19.8341 8.1 19.2341 8.256 18.7141 8.568C18.1941 8.872 17.7981 9.216 17.5261 9.6L14.5981 7.716C14.9581 7.204 15.4421 6.756 16.0501 6.372C16.6661 5.988 17.3621 5.688 18.1381 5.472C18.9221 5.256 19.7421 5.148 20.5981 5.148C22.0141 5.148 23.1621 5.38 24.0421 5.844C24.9221 6.308 25.5741 6.956 25.9981 7.788C26.1981 8.188 26.3621 8.628 26.4901 9.108C26.6181 9.588 26.7061 10.14 26.7541 10.764C26.7861 11.3 26.8101 11.8 26.8261 12.264C26.8421 12.728 26.8581 13.168 26.8741 13.584C26.8901 14.192 26.9581 14.588 27.0781 14.772C27.1981 14.956 27.3701 15.048 27.5941 15.048C27.8021 15.048 27.9861 14.992 28.1461 14.88C28.3141 14.76 28.4221 14.604 28.4701 14.412L29.7181 16.8C29.6301 17.168 29.3821 17.476 28.9741 17.724C28.5661 17.972 28.0501 18.096 27.4261 18.096C26.9701 18.096 26.5381 18.02 26.1301 17.868C25.7221 17.708 25.3861 17.496 25.1221 17.232C24.8581 16.96 24.7021 16.652 24.6541 16.308C24.5261 16.612 24.2581 16.912 23.8501 17.208C23.4421 17.496 22.9181 17.736 22.2781 17.928C21.6381 18.112 20.8901 18.204 20.0341 18.204ZM20.8381 15.384C21.2141 15.384 21.5981 15.328 21.9901 15.216C22.3901 15.096 22.7501 14.948 23.0701 14.772C23.3981 14.596 23.6501 14.416 23.8261 14.232C23.8101 13.984 23.7941 13.728 23.7781 13.464C23.7701 13.2 23.7701 12.976 23.7781 12.792C23.6021 12.72 23.2661 12.644 22.7701 12.564C22.2821 12.476 21.7701 12.432 21.2341 12.432C20.7461 12.432 20.2901 12.484 19.8661 12.588C19.4421 12.692 19.0941 12.852 18.8221 13.068C18.5581 13.284 18.4261 13.564 18.4261 13.908C18.4261 14.276 18.5261 14.568 18.7261 14.784C18.9261 15 19.2061 15.156 19.5661 15.252C19.9261 15.34 20.3501 15.384 20.8381 15.384ZM36.8174 4.908C37.3854 5.004 37.9174 5.116 38.4134 5.244C38.9094 5.372 39.3214 5.484 39.6494 5.58C39.9854 5.676 40.1894 5.74 40.2614 5.772C40.1014 6.412 39.9094 7.128 39.6854 7.92C39.4694 8.704 39.2254 9.528 38.9534 10.392C38.6894 11.248 38.4094 12.112 38.1134 12.984C37.8174 13.848 37.5134 14.692 37.2014 15.516C36.8974 16.332 36.5974 17.084 36.3014 17.772C35.8774 17.844 35.3574 17.88 34.7414 17.88C34.4374 17.88 34.1414 17.868 33.8534 17.844C33.5734 17.82 33.3334 17.796 33.1334 17.772C32.7174 16.9 32.3134 15.984 31.9214 15.024C31.5294 14.056 31.1494 13.06 30.7814 12.036C30.4134 11.012 30.0574 9.968 29.7134 8.904C29.3694 7.832 29.0334 6.76 28.7054 5.688C28.8254 5.664 29.0214 5.624 29.2934 5.568C29.5734 5.504 29.8774 5.432 30.2054 5.352C30.5414 5.272 30.8694 5.192 31.1894 5.112C31.5094 5.024 31.7734 4.952 31.9814 4.896C32.1014 5.376 32.2574 5.944 32.4494 6.6C32.6414 7.248 32.8494 7.928 33.0734 8.64C33.3054 9.344 33.5334 10.028 33.7574 10.692C33.9814 11.348 34.1814 11.932 34.3574 12.444C34.5414 12.956 34.6814 13.336 34.7774 13.584L34.6334 13.644C34.7774 13.188 34.9254 12.712 35.0774 12.216C35.2294 11.712 35.3814 11.184 35.5334 10.632C35.6854 10.072 35.8334 9.488 35.9774 8.88C36.1294 8.272 36.2734 7.636 36.4094 6.972C36.5534 6.308 36.6894 5.62 36.8174 4.908ZM53.2791 15.852C53.0551 16.124 52.7751 16.392 52.4391 16.656C52.1031 16.92 51.6991 17.16 51.2271 17.376C50.7631 17.584 50.2311 17.752 49.6311 17.88C49.0311 18 48.3591 18.06 47.6151 18.06C46.4071 18.06 45.3351 17.832 44.3991 17.376C43.4631 16.912 42.7311 16.228 42.2031 15.324C41.6831 14.412 41.4231 13.28 41.4231 11.928C41.4231 10.576 41.6951 9.4 42.2391 8.4C42.7831 7.392 43.5431 6.612 44.5191 6.06C45.4951 5.5 46.6351 5.22 47.9391 5.22C49.5871 5.22 50.8831 5.68 51.8271 6.6C52.7791 7.512 53.2751 8.776 53.3151 10.392C53.3231 10.688 53.3191 10.956 53.3031 11.196C53.2871 11.436 53.2551 11.692 53.2071 11.964C53.0871 11.956 52.8311 11.948 52.4391 11.94C52.0471 11.932 51.6031 11.924 51.1071 11.916C50.6191 11.9 50.1551 11.888 49.7151 11.88C49.2831 11.872 48.9631 11.868 48.7551 11.868C48.0591 11.868 47.3831 11.9 46.7271 11.964C46.0791 12.028 45.5351 12.096 45.0951 12.168C45.0951 12.312 45.1031 12.456 45.1191 12.6C45.1431 12.736 45.1751 12.868 45.2151 12.996C45.3191 13.324 45.4991 13.604 45.7551 13.836C46.0191 14.068 46.3311 14.248 46.6911 14.376C47.0591 14.496 47.4471 14.556 47.8551 14.556C48.2231 14.556 48.5591 14.512 48.8631 14.424C49.1751 14.328 49.4591 14.204 49.7151 14.052C49.9711 13.9 50.2031 13.736 50.4111 13.56C50.6271 13.376 50.8271 13.196 51.0111 13.02C51.0591 13.06 51.1831 13.18 51.3831 13.38C51.5831 13.572 51.8071 13.812 52.0551 14.1C52.3031 14.38 52.5391 14.676 52.7631 14.988C52.9871 15.3 53.1591 15.588 53.2791 15.852ZM45.2271 9.924C45.5871 9.868 46.0311 9.816 46.5591 9.768C47.0871 9.72 47.6991 9.696 48.3951 9.696C48.7711 9.696 49.1031 9.7 49.3911 9.708C49.6871 9.716 49.8951 9.724 50.0151 9.732C50.0151 9.564 49.9911 9.38 49.9431 9.18C49.8791 8.908 49.7511 8.648 49.5591 8.4C49.3751 8.152 49.1351 7.952 48.8391 7.8C48.5511 7.648 48.2031 7.572 47.7951 7.572C47.2831 7.572 46.8351 7.684 46.4511 7.908C46.0751 8.132 45.7831 8.424 45.5751 8.784C45.3671 9.144 45.2511 9.524 45.2271 9.924Z" fill="black"/>
<path d="M54.9379 18.108C54.9379 17.908 54.9419 17.528 54.9499 16.968C54.9579 16.408 54.9699 15.728 54.9859 14.928C55.0019 14.128 55.0219 13.264 55.0459 12.336C55.0779 11.408 55.1059 10.468 55.1299 9.516C55.1619 8.564 55.1939 7.656 55.2259 6.792C55.2579 5.92 55.2939 5.152 55.3339 4.488C55.3739 3.816 55.4099 3.304 55.4419 2.952C56.1619 2.808 56.9139 2.7 57.6979 2.628C58.4899 2.556 59.3179 2.52 60.1819 2.52C61.2379 2.52 62.1619 2.668 62.9539 2.964C63.7539 3.26 64.3739 3.724 64.8139 4.356C65.2619 4.988 65.4859 5.804 65.4859 6.804C65.4859 7.82 65.3019 8.7 64.9339 9.444C64.5739 10.188 64.0219 10.76 63.2779 11.16C62.5419 11.56 61.6139 11.76 60.4939 11.76C60.2699 11.76 60.0019 11.744 59.6899 11.712C59.3859 11.672 59.1499 11.628 58.9819 11.58C58.9739 11.796 58.9619 12.18 58.9459 12.732C58.9379 13.284 58.9219 13.9 58.8979 14.58C58.8819 15.26 58.8659 15.928 58.8499 16.584C58.8339 17.24 58.8259 17.78 58.8259 18.204C58.6339 18.204 58.3659 18.204 58.0219 18.204C57.6779 18.204 57.3059 18.196 56.9059 18.18C56.5139 18.172 56.1419 18.16 55.7899 18.144C55.4379 18.136 55.1539 18.124 54.9379 18.108ZM58.9099 8.46C59.0779 8.492 59.2699 8.52 59.4859 8.544C59.7099 8.56 59.9259 8.568 60.1339 8.568C60.5179 8.568 60.8739 8.508 61.2019 8.388C61.5299 8.26 61.7939 8.068 61.9939 7.812C62.1939 7.548 62.2939 7.212 62.2939 6.804C62.2939 6.212 62.1219 5.812 61.7779 5.604C61.4339 5.388 60.9739 5.28 60.3979 5.28C60.1739 5.28 59.9379 5.292 59.6899 5.316C59.4419 5.332 59.1819 5.356 58.9099 5.388C58.9099 5.436 58.9099 5.556 58.9099 5.748C58.9099 5.94 58.9099 6.172 58.9099 6.444C58.9099 6.708 58.9099 6.976 58.9099 7.248C58.9099 7.52 58.9099 7.768 58.9099 7.992C58.9099 8.216 58.9099 8.372 58.9099 8.46ZM71.6903 18.204C70.7063 18.204 69.8063 18.072 68.9903 17.808C68.1743 17.536 67.5223 17.1 67.0343 16.5C66.5543 15.892 66.3143 15.088 66.3143 14.088C66.3143 13.088 66.5943 12.284 67.1543 11.676C67.7223 11.06 68.4663 10.616 69.3863 10.344C70.3143 10.064 71.3103 9.924 72.3743 9.924C72.7903 9.924 73.1903 9.956 73.5743 10.02C73.9583 10.084 74.2943 10.16 74.5823 10.248C74.8783 10.336 75.0903 10.42 75.2183 10.5C75.2103 10.292 75.1663 10.072 75.0863 9.84C75.0143 9.608 74.9103 9.412 74.7743 9.252C74.5343 8.924 74.2063 8.652 73.7903 8.436C73.3823 8.212 72.8423 8.1 72.1703 8.1C71.4903 8.1 70.8903 8.256 70.3703 8.568C69.8503 8.872 69.4543 9.216 69.1823 9.6L66.2543 7.716C66.6143 7.204 67.0983 6.756 67.7063 6.372C68.3223 5.988 69.0183 5.688 69.7943 5.472C70.5783 5.256 71.3983 5.148 72.2543 5.148C73.6703 5.148 74.8183 5.38 75.6983 5.844C76.5783 6.308 77.2303 6.956 77.6543 7.788C77.8543 8.188 78.0183 8.628 78.1463 9.108C78.2743 9.588 78.3623 10.14 78.4103 10.764C78.4423 11.3 78.4663 11.8 78.4823 12.264C78.4983 12.728 78.5143 13.168 78.5303 13.584C78.5463 14.192 78.6143 14.588 78.7343 14.772C78.8543 14.956 79.0263 15.048 79.2503 15.048C79.4583 15.048 79.6423 14.992 79.8023 14.88C79.9703 14.76 80.0783 14.604 80.1263 14.412L81.3743 16.8C81.2863 17.168 81.0383 17.476 80.6303 17.724C80.2223 17.972 79.7063 18.096 79.0823 18.096C78.6263 18.096 78.1943 18.02 77.7863 17.868C77.3783 17.708 77.0423 17.496 76.7783 17.232C76.5143 16.96 76.3583 16.652 76.3103 16.308C76.1823 16.612 75.9143 16.912 75.5063 17.208C75.0983 17.496 74.5743 17.736 73.9343 17.928C73.2943 18.112 72.5463 18.204 71.6903 18.204ZM72.4943 15.384C72.8703 15.384 73.2543 15.328 73.6463 15.216C74.0463 15.096 74.4063 14.948 74.7263 14.772C75.0543 14.596 75.3063 14.416 75.4823 14.232C75.4663 13.984 75.4503 13.728 75.4343 13.464C75.4263 13.2 75.4263 12.976 75.4343 12.792C75.2583 12.72 74.9223 12.644 74.4263 12.564C73.9383 12.476 73.4263 12.432 72.8903 12.432C72.4023 12.432 71.9463 12.484 71.5223 12.588C71.0983 12.692 70.7503 12.852 70.4783 13.068C70.2143 13.284 70.0823 13.564 70.0823 13.908C70.0823 14.276 70.1823 14.568 70.3823 14.784C70.5823 15 70.8623 15.156 71.2223 15.252C71.5823 15.34 72.0063 15.384 72.4943 15.384ZM87.0254 18.948C86.0894 18.948 85.2294 18.832 84.4454 18.6C83.6694 18.376 83.0094 18.112 82.4654 17.808C81.9294 17.496 81.5414 17.216 81.3014 16.968C81.3494 16.816 81.4414 16.596 81.5774 16.308C81.7214 16.012 81.8894 15.692 82.0814 15.348C82.2734 15.004 82.4654 14.684 82.6574 14.388C82.8494 14.092 83.0214 13.872 83.1734 13.728C83.5574 14.056 83.9734 14.38 84.4214 14.7C84.8694 15.012 85.3294 15.268 85.8014 15.468C86.2734 15.668 86.7134 15.768 87.1214 15.768C87.4414 15.768 87.7294 15.728 87.9854 15.648C88.2414 15.56 88.4414 15.432 88.5854 15.264C88.7374 15.096 88.8134 14.888 88.8134 14.64C88.8134 14.352 88.6734 14.076 88.3934 13.812C88.1214 13.54 87.7694 13.284 87.3374 13.044C86.9054 12.804 86.4534 12.588 85.9814 12.396C85.3334 12.132 84.7294 11.824 84.1694 11.472C83.6094 11.112 83.1574 10.672 82.8134 10.152C82.4694 9.624 82.2974 8.968 82.2974 8.184C82.2974 7.384 82.5334 6.712 83.0054 6.168C83.4774 5.624 84.0934 5.212 84.8534 4.932C85.6214 4.652 86.4414 4.512 87.3134 4.512C88.1374 4.512 88.9734 4.628 89.8214 4.86C90.6694 5.084 91.3614 5.408 91.8974 5.832C91.8494 5.984 91.7454 6.216 91.5854 6.528C91.4334 6.84 91.2454 7.176 91.0214 7.536C90.8054 7.888 90.5734 8.212 90.3254 8.508C89.9974 8.228 89.5854 7.96 89.0894 7.704C88.5934 7.448 88.0734 7.32 87.5294 7.32C87.2574 7.32 86.9854 7.348 86.7134 7.404C86.4494 7.46 86.2294 7.56 86.0534 7.704C85.8854 7.848 85.8014 8.044 85.8014 8.292C85.8014 8.532 85.8934 8.748 86.0774 8.94C86.2614 9.124 86.5294 9.304 86.8814 9.48C87.2414 9.656 87.6614 9.84 88.1414 10.032C88.6214 10.224 89.1094 10.452 89.6054 10.716C90.1014 10.972 90.5574 11.28 90.9734 11.64C91.3974 12 91.7374 12.42 91.9934 12.9C92.2494 13.372 92.3774 13.916 92.3774 14.532C92.3774 15.516 92.1334 16.336 91.6454 16.992C91.1574 17.648 90.5054 18.136 89.6894 18.456C88.8814 18.784 87.9934 18.948 87.0254 18.948ZM98.9082 18.948C97.9722 18.948 97.1122 18.832 96.3282 18.6C95.5522 18.376 94.8922 18.112 94.3482 17.808C93.8122 17.496 93.4242 17.216 93.1842 16.968C93.2322 16.816 93.3242 16.596 93.4602 16.308C93.6042 16.012 93.7722 15.692 93.9642 15.348C94.1562 15.004 94.3482 14.684 94.5402 14.388C94.7322 14.092 94.9042 13.872 95.0562 13.728C95.4402 14.056 95.8562 14.38 96.3042 14.7C96.7522 15.012 97.2122 15.268 97.6842 15.468C98.1562 15.668 98.5962 15.768 99.0042 15.768C99.3242 15.768 99.6122 15.728 99.8682 15.648C100.124 15.56 100.324 15.432 100.468 15.264C100.62 15.096 100.696 14.888 100.696 14.64C100.696 14.352 100.556 14.076 100.276 13.812C100.004 13.54 99.6522 13.284 99.2202 13.044C98.7882 12.804 98.3362 12.588 97.8642 12.396C97.2162 12.132 96.6122 11.824 96.0522 11.472C95.4922 11.112 95.0402 10.672 94.6962 10.152C94.3522 9.624 94.1802 8.968 94.1802 8.184C94.1802 7.384 94.4162 6.712 94.8882 6.168C95.3602 5.624 95.9762 5.212 96.7362 4.932C97.5042 4.652 98.3242 4.512 99.1962 4.512C100.02 4.512 100.856 4.628 101.704 4.86C102.552 5.084 103.244 5.408 103.78 5.832C103.732 5.984 103.628 6.216 103.468 6.528C103.316 6.84 103.128 7.176 102.904 7.536C102.688 7.888 102.456 8.212 102.208 8.508C101.88 8.228 101.468 7.96 100.972 7.704C100.476 7.448 99.9562 7.32 99.4122 7.32C99.1402 7.32 98.8682 7.348 98.5962 7.404C98.3322 7.46 98.1122 7.56 97.9362 7.704C97.7682 7.848 97.6842 8.044 97.6842 8.292C97.6842 8.532 97.7762 8.748 97.9602 8.94C98.1442 9.124 98.4122 9.304 98.7642 9.48C99.1242 9.656 99.5442 9.84 100.024 10.032C100.504 10.224 100.992 10.452 101.488 10.716C101.984 10.972 102.44 11.28 102.856 11.64C103.28 12 103.62 12.42 103.876 12.9C104.132 13.372 104.26 13.916 104.26 14.532C104.26 15.516 104.016 16.336 103.528 16.992C103.04 17.648 102.388 18.136 101.572 18.456C100.764 18.784 99.8762 18.948 98.9082 18.948ZM110.119 17.916C109.231 17.916 108.499 17.716 107.923 17.316C107.347 16.908 106.895 16.356 106.567 15.66C106.247 14.956 106.019 14.148 105.883 13.236C105.755 12.324 105.691 11.36 105.691 10.344C105.691 9.52 105.719 8.68 105.775 7.824C105.839 6.96 105.915 6.112 106.003 5.28C106.507 5.28 107.079 5.296 107.719 5.328C108.367 5.36 108.951 5.396 109.471 5.436C109.383 6.404 109.315 7.324 109.267 8.196C109.219 9.068 109.195 9.864 109.195 10.584C109.195 11.352 109.235 12.02 109.315 12.588C109.395 13.156 109.531 13.596 109.723 13.908C109.915 14.212 110.179 14.364 110.515 14.364C110.811 14.364 111.063 14.232 111.271 13.968C111.487 13.696 111.663 13.324 111.799 12.852C111.935 12.372 112.035 11.816 112.099 11.184C112.171 10.544 112.207 9.86 112.207 9.132C112.207 8.588 112.203 7.996 112.195 7.356C112.187 6.716 112.171 6.1 112.147 5.508C112.379 5.508 112.699 5.512 113.107 5.52C113.515 5.52 113.923 5.524 114.331 5.532C114.747 5.54 115.083 5.552 115.339 5.568C115.339 5.864 115.339 6.16 115.339 6.456C115.339 6.752 115.339 7.044 115.339 7.332C115.339 8.492 115.351 9.532 115.375 10.452C115.407 11.372 115.471 12.156 115.567 12.804C115.671 13.444 115.827 13.932 116.035 14.268C116.243 14.604 116.527 14.772 116.887 14.772C117.223 14.772 117.503 14.628 117.727 14.34C117.951 14.044 118.131 13.632 118.267 13.104C118.411 12.576 118.511 11.96 118.567 11.256C118.631 10.544 118.663 9.78 118.663 8.964C118.663 8.628 118.663 8.272 118.663 7.896C118.663 7.512 118.659 7.116 118.651 6.708C118.643 6.3 118.631 5.9 118.615 5.508C118.847 5.508 119.099 5.508 119.371 5.508C119.643 5.508 119.919 5.508 120.199 5.508C120.455 5.508 120.759 5.516 121.111 5.532C121.471 5.548 121.751 5.564 121.951 5.58C121.975 5.908 121.999 6.304 122.023 6.768C122.047 7.224 122.067 7.68 122.083 8.136C122.099 8.584 122.107 8.964 122.107 9.276C122.107 10.276 122.047 11.212 121.927 12.084C121.807 12.956 121.623 13.744 121.375 14.448C121.127 15.152 120.803 15.756 120.403 16.26C120.011 16.764 119.535 17.152 118.975 17.424C118.423 17.688 117.779 17.82 117.043 17.82C116.403 17.82 115.867 17.712 115.435 17.496C115.003 17.28 114.655 17.004 114.391 16.668C114.127 16.324 113.923 15.964 113.779 15.588C113.643 15.212 113.547 14.86 113.491 14.532C113.443 14.204 113.411 13.948 113.395 13.764L114.127 13.884C114.119 14.212 114.035 14.604 113.875 15.06C113.723 15.516 113.487 15.964 113.167 16.404C112.847 16.836 112.435 17.196 111.931 17.484C111.435 17.772 110.831 17.916 110.119 17.916ZM130.309 18.264C128.189 18.264 126.593 17.704 125.521 16.584C124.449 15.456 123.913 13.82 123.913 11.676C123.913 10.244 124.189 9.056 124.741 8.112C125.293 7.16 126.057 6.444 127.033 5.964C128.017 5.484 129.153 5.244 130.441 5.244C131.753 5.244 132.841 5.544 133.705 6.144C134.577 6.744 135.229 7.572 135.661 8.628C136.093 9.684 136.309 10.904 136.309 12.288C136.309 13.496 136.077 14.548 135.613 15.444C135.149 16.34 134.469 17.036 133.573 17.532C132.685 18.02 131.597 18.264 130.309 18.264ZM130.177 14.82C130.617 14.82 131.005 14.744 131.341 14.592C131.685 14.44 131.973 14.224 132.205 13.944C132.445 13.656 132.625 13.32 132.745 12.936C132.865 12.552 132.925 12.132 132.925 11.676C132.925 10.964 132.821 10.336 132.613 9.792C132.413 9.24 132.113 8.812 131.713 8.508C131.321 8.196 130.833 8.04 130.249 8.04C129.617 8.04 129.101 8.2 128.701 8.52C128.301 8.84 128.005 9.26 127.813 9.78C127.629 10.292 127.537 10.84 127.537 11.424C127.537 12.408 127.761 13.22 128.209 13.86C128.665 14.5 129.321 14.82 130.177 14.82ZM141.48 7.248C141.664 6.888 141.944 6.544 142.32 6.216C142.704 5.888 143.156 5.62 143.676 5.412C144.204 5.204 144.764 5.1 145.356 5.1C145.716 5.1 146.08 5.136 146.448 5.208C146.816 5.28 147.084 5.376 147.252 5.496L146.508 9.312C146.332 9.24 146.104 9.16 145.824 9.072C145.544 8.984 145.224 8.94 144.864 8.94C144.496 8.94 144.136 9.004 143.784 9.132C143.44 9.252 143.12 9.424 142.824 9.648C142.528 9.872 142.268 10.14 142.044 10.452C142.124 10.916 142.212 11.508 142.308 12.228C142.412 12.948 142.508 13.688 142.596 14.448C142.684 15.208 142.756 15.9 142.812 16.524C142.868 17.148 142.896 17.604 142.896 17.892C142.336 17.964 141.688 18.012 140.952 18.036C140.216 18.06 139.508 18.068 138.828 18.06C138.828 17.388 138.808 16.624 138.768 15.768C138.736 14.912 138.688 14.02 138.624 13.092C138.56 12.156 138.48 11.236 138.384 10.332C138.296 9.42 138.192 8.576 138.072 7.8C137.96 7.024 137.84 6.364 137.712 5.82C138.096 5.708 138.52 5.604 138.984 5.508C139.448 5.412 139.868 5.336 140.244 5.28C140.62 5.216 140.86 5.18 140.964 5.172C141.06 5.396 141.168 5.728 141.288 6.168C141.408 6.6 141.472 6.96 141.48 7.248ZM156.038 17.964C156.022 17.852 156.01 17.692 156.002 17.484C155.994 17.276 155.986 17.064 155.978 16.848C155.978 16.624 155.978 16.444 155.978 16.308C155.882 16.444 155.73 16.608 155.522 16.8C155.322 16.984 155.062 17.168 154.742 17.352C154.422 17.536 154.034 17.692 153.578 17.82C153.122 17.94 152.59 18 151.982 18C150.974 18 150.106 17.756 149.378 17.268C148.65 16.78 148.09 16.116 147.698 15.276C147.306 14.428 147.11 13.476 147.11 12.42C147.11 11.38 147.306 10.412 147.698 9.516C148.098 8.612 148.694 7.884 149.486 7.332C150.278 6.772 151.274 6.492 152.474 6.492C153.074 6.492 153.618 6.56 154.106 6.696C154.602 6.832 155.022 7.004 155.366 7.212C155.71 7.412 155.954 7.616 156.098 7.824C156.122 7.384 156.154 6.88 156.194 6.312C156.234 5.736 156.278 5.148 156.326 4.548C156.382 3.94 156.434 3.364 156.482 2.82C156.53 2.276 156.57 1.812 156.602 1.428C156.642 1.036 156.67 0.775999 156.686 0.647999C157.15 0.647999 157.67 0.675999 158.246 0.732C158.83 0.779999 159.346 0.863999 159.794 0.983999C159.658 2.816 159.55 4.648 159.47 6.48C159.39 8.304 159.334 10.172 159.302 12.084C159.278 13.988 159.266 15.984 159.266 18.072C159.082 18.072 158.778 18.068 158.354 18.06C157.938 18.052 157.51 18.04 157.07 18.024C156.63 18.008 156.286 17.988 156.038 17.964ZM152.978 14.508C153.33 14.508 153.654 14.468 153.95 14.388C154.246 14.308 154.518 14.2 154.766 14.064C155.014 13.92 155.23 13.768 155.414 13.608C155.606 13.44 155.766 13.272 155.894 13.104C155.894 12.944 155.894 12.748 155.894 12.516C155.894 12.276 155.894 12.036 155.894 11.796C155.902 11.556 155.906 11.328 155.906 11.112C155.914 10.896 155.922 10.728 155.93 10.608C155.754 10.44 155.51 10.276 155.198 10.116C154.886 9.956 154.542 9.828 154.166 9.732C153.798 9.628 153.422 9.576 153.038 9.576C152.254 9.576 151.642 9.812 151.202 10.284C150.77 10.748 150.554 11.352 150.554 12.096C150.554 12.88 150.762 13.48 151.178 13.896C151.602 14.304 152.202 14.508 152.978 14.508Z" fill="#3B82F6"/>
</svg>
